<?xml version="1.0" encoding="UTF-8"?><svg version="1.1" viewBox="0 0 40 40" xmlns="http://www.w3.org/2000/svg" xmlns:xlink="http://www.w3.org/1999/xlink"><path d="M11 13.5v8h-8v-8h8m-2 2h-4v4h4v-4m3-13.5l5.5 9h-11l5.5-9m0 3.86l-1.92 3.14h3.84l-1.92-3.14m5.5 7.14c2.5 0 4.5 2 4.5 4.5 0 2.5-2 4.5-4.5 4.5 -2.5 0-4.5-2-4.5-4.5 0-2.5 2-4.5 4.5-4.5m0 2l-1.09278e-07 3.55271e-15c-1.38071 6.03528e-08-2.5 1.11929-2.5 2.5 0 0 0 0 0 0l2.4869e-14 2.68211e-07c2.08482e-07 1.38071 1.11929 2.5 2.5 2.5l-7.94663e-08 7.10543e-15c1.38071-1.04241e-07 2.5-1.11929 2.5-2.5v-7.94663e-08c0-1.38071-1.11929-2.5-2.5-2.5 -2.3285e-08 0-5.61813e-08 0-7.94663e-08 1.77636e-15Z" transform="matrix(1.66667 0 0 1.66667 0 0)" fill="#5000DA"></path></svg>