<svg fill="none" height="44" viewBox="0 0 212 44" width="212" xmlns="http://www.w3.org/2000/svg"><rect fill="#000" height="44" rx="8" width="212"/><path d="m60.4375 15.2266v11.2734h1.4063v-4.0234h2.8359c2.1172 0 3.625-1.4922 3.625-3.6016 0-2.1484-1.4766-3.6484-3.6094-3.6484zm1.4063 1.25h2.4843c1.6328 0 2.5313.8515 2.5313 2.3984 0 1.4922-.9297 2.3516-2.5313 2.3516h-2.4843zm11.5003 10.1718c2.3984 0 3.8828-1.6562 3.8828-4.3593 0-2.711-1.4844-4.3594-3.8828-4.3594-2.3985 0-3.8828 1.6484-3.8828 4.3594 0 2.7031 1.4843 4.3593 3.8828 4.3593zm0-1.2109c-1.5938 0-2.4922-1.1563-2.4922-3.1484 0-2 .8984-3.1485 2.4922-3.1485 1.5937 0 2.4922 1.1485 2.4922 3.1485 0 1.9921-.8985 3.1484-2.4922 3.1484zm15.9534-7.3594h-1.3516l-1.6562 6.7344h-.125l-1.8828-6.7344h-1.2891l-1.8828 6.7344h-.125l-1.6562-6.7344h-1.3594l2.3594 8.4219h1.3593l1.875-6.5156h.125l1.8828 6.5156h1.3672zm4.5238 1.0391c1.3359 0 2.2265.9844 2.2578 2.4766h-4.6407c.1016-1.4922 1.0391-2.4766 2.3829-2.4766zm2.2187 5.2031c-.3516.7422-1.0859 1.1406-2.1719 1.1406-1.4297 0-2.3593-1.0547-2.4297-2.7187v-.0625h6.0547v-.5156c0-2.6172-1.3828-4.2344-3.6562-4.2344-2.3125 0-3.7969 1.7187-3.7969 4.3672 0 2.664 1.4609 4.3515 3.7969 4.3515 1.8437 0 3.1562-.8906 3.5469-2.3281zm3.2425 2.1797h1.3435v-5.2188c0-1.1874.93-2.0468 2.211-2.0468.266 0 .75.0468.86.0781v-1.3437c-.172-.0235-.454-.0391-.672-.0391-1.117 0-2.086.5781-2.336 1.3984h-.125v-1.25h-1.2815zm8.8985-7.3828c1.336 0 2.227.9844 2.258 2.4766h-4.641c.102-1.4922 1.04-2.4766 2.383-2.4766zm2.219 5.2031c-.352.7422-1.086 1.1406-2.172 1.1406-1.43 0-2.359-1.0547-2.43-2.7187v-.0625h6.055v-.5156c0-2.6172-1.383-4.2344-3.656-4.2344-2.313 0-3.797 1.7187-3.797 4.3672 0 2.664 1.461 4.3515 3.797 4.3515 1.844 0 3.156-.8906 3.547-2.3281zm6.36 2.3281c1.164 0 2.164-.5546 2.695-1.4922h.125v1.3438h1.281v-11.7656h-1.343v4.6718h-.118c-.476-.9218-1.468-1.4765-2.64-1.4765-2.141 0-3.539 1.7187-3.539 4.3594 0 2.6484 1.382 4.3593 3.539 4.3593zm.312-7.5078c1.524 0 2.477 1.2188 2.477 3.1485 0 1.9453-.946 3.1484-2.477 3.1484-1.539 0-2.461-1.1797-2.461-3.1484 0-1.961.93-3.1485 2.461-3.1485zm14.462 7.5078c2.133 0 3.531-1.7265 3.531-4.3593 0-2.6485-1.391-4.3594-3.531-4.3594-1.156 0-2.18.5703-2.641 1.4765h-.125v-4.6718h-1.344v11.7656h1.282v-1.3438h.125c.531.9376 1.531 1.4922 2.703 1.4922zm-.313-7.5078c1.539 0 2.453 1.1797 2.453 3.1485 0 1.9687-.914 3.1484-2.453 3.1484-1.531 0-2.484-1.2031-2.484-3.1484s.953-3.1485 2.484-3.1485zm6.04 10.4063c1.492 0 2.164-.5781 2.882-2.5313l3.29-8.9375h-1.43l-2.305 6.9297h-.125l-2.312-6.9297h-1.453l3.117 8.4297-.157.5c-.351 1.0156-.773 1.3828-1.546 1.3828-.188 0-.399-.0078-.563-.039v1.1484c.188.0312.422.0469.602.0469zm17.391-3.0469 3.898-11.2734h-2.148l-2.813 8.9218h-.132l-2.836-8.9218h-2.227l3.938 11.2734zm8.016-7.1797c1.164 0 1.93.8125 1.969 2.0781h-4.024c.086-1.25.899-2.0781 2.055-2.0781zm1.984 4.8281c-.281.6328-.945.9844-1.906.9844-1.273 0-2.094-.8906-2.141-2.3125v-.1015h5.969v-.625c0-2.6954-1.461-4.3126-3.898-4.3126-2.477 0-4.016 1.7266-4.016 4.4766s1.516 4.4141 4.031 4.4141c2.016 0 3.446-.9688 3.797-2.5235zm3.547 2.3516h1.938v-4.9375c0-1.1953.875-1.9766 2.133-1.9766.328 0 .843.0547.992.1094v-1.7969c-.18-.0546-.524-.0859-.805-.0859-1.101 0-2.023.625-2.258 1.4687h-.132v-1.3281h-1.868zm13.501-5.6719c-.203-1.7969-1.532-3.0469-3.727-3.0469-2.57 0-4.078 1.6485-4.078 4.4219 0 2.8125 1.516 4.4688 4.086 4.4688 2.164 0 3.508-1.2031 3.719-2.9922h-1.844c-.203.8906-.875 1.3672-1.883 1.3672-1.32 0-2.117-1.0469-2.117-2.8438 0-1.7734.789-2.7969 2.117-2.7969 1.063 0 1.703.5938 1.883 1.4219zm5.117-1.5078c1.164 0 1.93.8125 1.969 2.0781h-4.024c.086-1.25.899-2.0781 2.055-2.0781zm1.985 4.8281c-.282.6328-.946.9844-1.907.9844-1.273 0-2.093-.8906-2.14-2.3125v-.1015h5.968v-.625c0-2.6954-1.461-4.3126-3.898-4.3126-2.477 0-4.016 1.7266-4.016 4.4766s1.516 4.4141 4.032 4.4141c2.015 0 3.445-.9688 3.796-2.5235zm3.625 2.3516h1.937v-11.8516h-1.937z" fill="#fff"/><path d="m23.3248 13 9.3249 16h-18.6497z" fill="#fff"/><path d="m43.5 0v44" stroke="#5e5e5e"/></svg>